# xmcd
#
# Track frame offsets:
#	150
#	15506
#	34354
#	51615
#	70244
#	90635
#	106297
#	125401
#	144531
#	160861
#	180778
#	198415
#	214549
#	228938
#	245997
#
# Disc length: 3484 seconds
#
# Revision: 1
# Processed by: cddbd v1.5.2PL0 Copyright (c) Steve Scherf et al.
# Submitted via: audiograbber 1.83.01
#
DISCID=d00d9a0f
DTITLE=Rita Guerra - Luar
DYEAR=2010
DGENRE=Pop
TTITLE0=eu só quero
TTITLE1=preciso de ti (agora)
TTITLE2=louca por ti
TTITLE3=feliz (no momento)
TTITLE4=só quando já for tarde demais
TTITLE5=não vou ficar (no teu mundo)
TTITLE6=no outro lado da lua
TTITLE7=no nosso lugar (eu vou-te encontar)
TTITLE8=não chores por ter acabado
TTITLE9=olha para mim
TTITLE10=mal menor (no meu luar)
TTITLE11=com momentos de ternura
TTITLE12=moite e lua
TTITLE13=pedra no sapato (virar a página)
TTITLE14=enquanto d(o)urar o dia
EXTD=
EXTT0=
EXTT1=
EXTT2=
EXTT3=
EXTT4=
EXTT5=
EXTT6=
EXTT7=
EXTT8=
EXTT9=
EXTT10=
EXTT11=
EXTT12=
EXTT13=
EXTT14=
PLAYORDER=
